<?xml version="1.0" encoding="utf-8"?>
<!-- Generator: Adobe Illustrator 20.1.0, SVG Export Plug-In . SVG Version: 6.00 Build 0)  -->
<svg version="1.1" id="Layer_1" xmlns="http://www.w3.org/2000/svg" xmlns:xlink="http://www.w3.org/1999/xlink" x="0px" y="0px"
	 viewBox="0 0 714 250" style="enable-background:new 0 0 714 250;" xml:space="preserve">
<style type="text/css">
	.st0{fill:#898B8D;}
	.st1{fill:#00AA94;}
	.st2{fill:#FFD000;}
	.st3{font-family:'UniversLTStd-BoldCn';}
	.st4{font-size:52px;}
</style>
<g>
	<path class="st0" d="M186.5,131l20.7-74.8h20.6l20.3,74.8h-16.5l-4.1-16.6h-21.3l-4.2,16.6 M216.6,70.6h-0.2l-7.1,32.3h14.9
		L216.6,70.6z"/>
	<path class="st0" d="M275.4,119.5h8.7c3.3,0,10.8-0.1,10.8-10.6c0-6.6-2.5-10.7-10.4-10.7h-9.1 M275.4,86.8h10.5
		c3.4,0,8.2-2.3,8.2-9.5c0-5.5-3.7-9.5-9-9.5h-9.6V86.8z M259.8,131V56.2h27.8c11.9,0,21.7,3.4,21.7,19.4c0,8.6-4.2,14.8-12.7,16.5
		v0.2c11.1,1.6,14,8.7,14,19c0,18.9-16.5,19.8-23.1,19.8H259.8z"/>
	<polyline class="st0" points="329.2,131 329.2,56.2 350.3,56.2 370.2,108 370.4,108 370.4,56.2 385,56.2 385,131 364.4,131 
		344,76.3 343.8,76.3 343.8,131 	"/>
	<path class="st0" d="M423.7,131l20.7-74.8H465l20.3,74.8h-16.5l-4.1-16.6h-21.3l-4.3,16.6 M453.8,70.6h-0.2l-7.1,32.3h14.9
		L453.8,70.6z"/>
	<polyline class="st0" points="498.6,131 498.6,56.2 523.7,56.2 535.4,107.1 535.6,107.1 548.1,56.2 572.4,56.2 572.4,131 
		557.2,131 557.2,73.3 557,73.3 542.6,131 527.7,131 514,73.3 513.8,73.3 513.8,131 	"/>
	<path class="st0" d="M606.7,88.5h6.9c6.2,0,8-6.2,8-11c0-7.1-3-9.8-8-9.8h-6.9 M606.7,131H591V56.2h28.9c10.7,0,17.5,6.8,17.5,19.6
		c0,9.5-3.7,16.7-13.9,18.3v0.2c3.4,0.4,13.6,1.2,13.6,14.7c0,4.8,0.3,18.8,1.8,22h-15.3c-2.1-4.6-1.7-9.6-1.7-14.5
		c0-8.9,0.8-16.5-11.2-16.5h-4V131z"/>
	<path class="st0" d="M690.1,93.6c0-19.2-1.1-27.4-9.9-27.4c-8.8,0-9.9,8.3-9.9,27.4c0,19.2,1.1,27.4,9.9,27.4
		C689,121,690.1,112.8,690.1,93.6 M654.4,93.6c0-19.8,0-38.6,25.8-38.6C706,55,706,73.8,706,93.6c0,19.6,0,38.6-25.8,38.6
		C654.4,132.2,654.4,113.2,654.4,93.6"/>
	<polyline class="st0" points="419.1,89.1 408.3,78.4 397.6,89.1 408.3,99.9 	"/>
	<polyline class="st1" points="77.5,213.1 140.8,149.7 140.8,43.9 14,43.9 14,149.7 	"/>
	<polyline class="st2" points="140.8,149.7 77.5,86.2 77.5,213.1 	"/>
</g>
<text transform="matrix(1 0 0 1 182.4864 191.0003)" class="st0 st3 st4">Real Estate Clients</text>
</svg>
