<?xml version="1.0" encoding="utf-8"?>
<!-- Generator: Adobe Illustrator 20.1.0, SVG Export Plug-In . SVG Version: 6.00 Build 0)  -->
<svg version="1.1" id="Layer_1" xmlns="http://www.w3.org/2000/svg" xmlns:xlink="http://www.w3.org/1999/xlink" x="0px" y="0px"
	 viewBox="0 0 250 250" style="enable-background:new 0 0 250 250;" xml:space="preserve">
<style type="text/css">
	.st0{fill:#179387;}
</style>
<g>
	<g>
		<path class="st0" d="M216.4,217.2H51.3c-11.4,0-20.7-9.3-20.7-20.7v-6.1c0-2.3,1.8-4.1,4.1-4.1s4.1,1.8,4.1,4.1v6.1
			c0,6.9,5.6,12.4,12.4,12.4h165.1c6.9,0,12.5-5.6,12.5-12.4V89.2c0-6.9-5.6-12.5-12.5-12.5h-14c-2.3,0-4.1-1.8-4.1-4.1
			c0-2.3,1.8-4.1,4.1-4.1h14c11.4,0,20.7,9.3,20.7,20.7v107.3C237.1,207.9,227.8,217.2,216.4,217.2z"/>
		<rect x="207.6" y="103.4" class="st0" width="21.2" height="8.3"/>
		<rect x="210.9" y="133.2" class="st0" width="18" height="8.3"/>
	</g>
	<g>
		<path class="st0" d="M185.3,37.6c4.1,0,7.6,3,8.2,7.1l16.4,106c0.3,2.2-0.2,4.4-1.5,6.2c-1.3,1.8-3.2,3-5.4,3.3L39.8,185.4
			c-0.4,0.1-0.9,0.1-1.3,0.1c-4.1,0-7.6-3-8.2-7.1l-16.4-106c-0.3-2.2,0.2-4.4,1.5-6.2c1.3-1.8,3.2-3,5.4-3.3L184,37.7
			C184.4,37.6,184.9,37.6,185.3,37.6 M185.3,29.3c-0.8,0-1.7,0.1-2.5,0.2L19.6,54.7c-9.1,1.4-15.3,9.9-13.9,18.9l16.4,106
			c1.3,8.2,8.3,14.1,16.4,14.1c0.8,0,1.7-0.1,2.6-0.2l163.2-25.2c9-1.4,15.3-9.9,13.9-18.9l-16.4-106
			C200.4,35.2,193.3,29.3,185.3,29.3L185.3,29.3z"/>
		
			<rect x="11.5" y="72.5" transform="matrix(0.9883 -0.1524 0.1524 0.9883 -10.4281 17.1179)" class="st0" width="190" height="8.3"/>
		
			<rect x="16" y="101.9" transform="matrix(0.9883 -0.1524 0.1524 0.9883 -14.8526 18.1529)" class="st0" width="190" height="8.3"/>
		<path class="st0" d="M43.5,145.6c-2,0-3.8-1.5-4.1-3.5c-0.3-2.3,1.2-4.4,3.5-4.7l90.7-14c2.2-0.3,4.4,1.2,4.7,3.5
			c0.3,2.3-1.2,4.4-3.5,4.7l-90.7,14C43.9,145.6,43.7,145.6,43.5,145.6z"/>
		<path class="st0" d="M46.1,162.2c-2,0-3.8-1.5-4.1-3.5c-0.3-2.3,1.2-4.4,3.5-4.7l45.3-7c2.2-0.3,4.4,1.2,4.7,3.5
			c0.3,2.3-1.2,4.4-3.5,4.7l-45.3,7C46.5,162.2,46.3,162.2,46.1,162.2z"/>
	</g>
</g>
</svg>
