<?xml version="1.0" encoding="utf-8"?>
<!-- Generator: Adobe Illustrator 20.1.0, SVG Export Plug-In . SVG Version: 6.00 Build 0)  -->
<svg version="1.1" id="Layer_1" xmlns="http://www.w3.org/2000/svg" xmlns:xlink="http://www.w3.org/1999/xlink" x="0px" y="0px"
	 viewBox="0 0 250 250" style="enable-background:new 0 0 250 250;" xml:space="preserve">
<style type="text/css">
	.st0{fill:#179387;}
</style>
<g>
	<g>
		<path class="st0" d="M125.6,204.5c-75.4,0-117.2-73.4-119-76.5c-0.8-1.5-0.8-3.2,0-4.7c1.7-3.1,43.6-76.5,119-76.5
			c75.4,0,117.2,73.4,119,76.5c0.8,1.5,0.8,3.2,0,4.7C242.8,131.1,201,204.5,125.6,204.5z M16.4,125.7
			c7.7,12.3,46.8,69.3,109.2,69.3s101.5-56.9,109.2-69.3c-7.7-12.3-46.8-69.3-109.2-69.3C63,56.4,24.1,113.3,16.4,125.7z"/>
	</g>
	<path class="st0" d="M125.6,179.5c-29.7,0-53.9-24.2-53.9-53.9s24.2-53.9,53.9-53.9s53.9,24.2,53.9,53.9S155.3,179.5,125.6,179.5z
		 M125.6,81.4c-24.4,0-44.3,19.9-44.3,44.3s19.9,44.3,44.3,44.3c24.4,0,44.3-19.9,44.3-44.3S150,81.4,125.6,81.4z"/>
	<path class="st0" d="M125.6,147.4c-12,0-21.7-9.7-21.7-21.7c0-2.6,2.1-4.8,4.8-4.8s4.8,2.1,4.8,4.8c0,6.7,5.4,12.1,12.1,12.1
		c6.7,0,12.1-5.4,12.1-12.1s-5.4-12.1-12.1-12.1c-2.6,0-4.8-2.1-4.8-4.8s2.1-4.8,4.8-4.8c12,0,21.7,9.7,21.7,21.7
		S137.6,147.4,125.6,147.4z"/>
</g>
</svg>
